<?xml version="1.0" encoding="UTF-8"?>
<!DOCTYPE svg PUBLIC "-//W3C//DTD SVG 1.1//EN" "http://www.w3.org/Graphics/SVG/1.1/DTD/svg11.dtd">
<svg xmlns="http://www.w3.org/2000/svg" version="1.1" width="500px" height="500px" style="shape-rendering:geometricPrecision; text-rendering:geometricPrecision; image-rendering:optimizeQuality; fill-rule:evenodd; clip-rule:evenodd" xmlns:xlink="http://www.w3.org/1999/xlink">
<g><path style="opacity:0.51" fill="#1d271b" d="M 239.5,174.5 C 250.966,174.246 261.633,177.079 271.5,183C 277.667,188.5 283.833,194 290,199.5C 290.667,200.5 290.667,201.5 290,202.5C 279.96,210.875 269.126,218.042 257.5,224C 244.985,228.02 234.152,225.52 225,216.5C 223.312,213.341 221.479,210.341 219.5,207.5C 212.638,211.197 207.304,216.364 203.5,223C 195.901,223.619 194.068,220.786 198,214.5C 203.524,208.337 209.691,203.004 216.5,198.5C 216.605,190.489 220.271,184.322 227.5,180C 231.475,177.854 235.475,176.02 239.5,174.5 Z"/></g>
<g><path style="opacity:1" fill="#89c65c" d="M 271.5,212.5 C 271.158,213.338 270.492,213.672 269.5,213.5C 264.753,215.578 260.086,217.745 255.5,220C 248.016,222.191 240.683,221.858 233.5,219C 232.944,218.617 232.611,218.117 232.5,217.5C 236.796,219.665 241.129,219.832 245.5,218C 243.998,217.417 242.665,216.584 241.5,215.5C 245.156,211.666 249.489,210.666 254.5,212.5C 255.246,213.736 255.579,215.07 255.5,216.5C 257.288,216.785 258.955,216.452 260.5,215.5C 258.876,214.131 258.376,212.464 259,210.5C 261.501,210.05 263.667,209.05 265.5,207.5C 263.604,206.534 261.604,206.201 259.5,206.5C 259.369,205.624 259.702,204.957 260.5,204.5C 265.354,205.304 270.02,205.304 274.5,204.5C 274.5,206.167 274.5,207.833 274.5,209.5C 273.5,209.5 272.5,209.5 271.5,209.5C 271.5,210.5 271.5,211.5 271.5,212.5 Z"/></g>
<g><path style="opacity:1" fill="#86c758" d="M 235.5,199.5 C 236.833,199.5 238.167,199.5 239.5,199.5C 239.953,202.652 238.953,205.152 236.5,207C 236.957,207.414 237.291,207.914 237.5,208.5C 240.366,209.208 243.2,209.875 246,210.5C 250.232,209.956 254.399,209.623 258.5,209.5C 258.263,208.209 258.596,207.209 259.5,206.5C 261.604,206.201 263.604,206.534 265.5,207.5C 263.667,209.05 261.501,210.05 259,210.5C 258.376,212.464 258.876,214.131 260.5,215.5C 258.955,216.452 257.288,216.785 255.5,216.5C 255.579,215.07 255.246,213.736 254.5,212.5C 249.489,210.666 245.156,211.666 241.5,215.5C 242.665,216.584 243.998,217.417 245.5,218C 241.129,219.832 236.796,219.665 232.5,217.5C 229.629,214.934 227.629,211.768 226.5,208C 230.052,205.611 233.052,202.777 235.5,199.5 Z"/></g>
<g><path style="opacity:1" fill="#296529" d="M 263.5,194.5 C 262.903,195.139 262.07,195.472 261,195.5C 250.293,192.379 239.793,192.879 229.5,197C 226.893,198.572 224.559,200.406 222.5,202.5C 215.647,206.506 209.481,211.506 204,217.5C 203.109,222.039 201.276,222.539 198.5,219C 198.862,217.775 199.362,216.609 200,215.5C 206.437,208.895 213.604,203.228 221.5,198.5C 234.868,190.941 248.868,189.608 263.5,194.5 Z"/></g>
<g><path style="opacity:1" fill="#87c45f" d="M 263.5,182.5 C 264.552,182.351 265.552,182.517 266.5,183C 274.105,188.106 280.771,194.106 286.5,201C 281.928,205.407 276.928,209.24 271.5,212.5C 271.5,211.5 271.5,210.5 271.5,209.5C 272.5,209.5 273.5,209.5 274.5,209.5C 274.5,207.833 274.5,206.167 274.5,204.5C 270.02,205.304 265.354,205.304 260.5,204.5C 259.702,204.957 259.369,205.624 259.5,206.5C 258.596,207.209 258.263,208.209 258.5,209.5C 254.399,209.623 250.232,209.956 246,210.5C 243.2,209.875 240.366,209.208 237.5,208.5C 237.291,207.914 236.957,207.414 236.5,207C 238.953,205.152 239.953,202.652 239.5,199.5C 238.167,199.5 236.833,199.5 235.5,199.5C 241.351,197.201 247.351,197.034 253.5,199C 252.167,199.667 250.833,200.333 249.5,201C 253.203,201.579 256.869,201.412 260.5,200.5C 261.334,201.748 262.667,202.415 264.5,202.5C 266.693,202.674 268.527,202.007 270,200.5C 271,200.833 272,201.167 273,201.5C 273.692,200.975 274.192,200.308 274.5,199.5C 273.305,198.033 273.305,196.533 274.5,195C 273.37,193.24 272.37,191.407 271.5,189.5C 268.761,187.149 266.095,184.816 263.5,182.5 Z"/></g>
<g><path style="opacity:1" fill="#87bc65" d="M 260.5,200.5 C 256.869,201.412 253.203,201.579 249.5,201C 250.833,200.333 252.167,199.667 253.5,199C 247.351,197.034 241.351,197.201 235.5,199.5C 233.052,202.777 230.052,205.611 226.5,208C 227.629,211.768 229.629,214.934 232.5,217.5C 232.611,218.117 232.944,218.617 233.5,219C 240.683,221.858 248.016,222.191 255.5,220C 260.086,217.745 264.753,215.578 269.5,213.5C 261.124,221.508 251.124,224.674 239.5,223C 231.042,221.041 225.708,215.875 223.5,207.5C 223.261,205.533 223.594,203.699 224.5,202C 237.177,195.122 250.51,193.622 264.5,197.5C 264.737,196.209 264.404,195.209 263.5,194.5C 256.107,189.991 248.107,188.658 239.5,190.5C 242.258,189.182 245.424,188.515 249,188.5C 255.398,187.445 260.898,189.111 265.5,193.5C 267.426,198.254 265.759,200.587 260.5,200.5 Z"/></g>
<g><path style="opacity:1" fill="#0c3309" d="M 263.5,194.5 C 264.404,195.209 264.737,196.209 264.5,197.5C 250.51,193.622 237.177,195.122 224.5,202C 223.594,203.699 223.261,205.533 223.5,207.5C 222.549,206.081 222.216,204.415 222.5,202.5C 224.559,200.406 226.893,198.572 229.5,197C 239.793,192.879 250.293,192.379 261,195.5C 262.07,195.472 262.903,195.139 263.5,194.5 Z"/></g>
<g><path style="opacity:1" fill="#0c350b" d="M 263.5,194.5 C 248.868,189.608 234.868,190.941 221.5,198.5C 220.833,197.833 220.167,197.167 219.5,196.5C 224.842,194.278 230.175,192.278 235.5,190.5C 236.833,190.5 238.167,190.5 239.5,190.5C 248.107,188.658 256.107,189.991 263.5,194.5 Z"/></g>
<g><path style="opacity:1" fill="#88c65c" d="M 263.5,182.5 C 266.095,184.816 268.761,187.149 271.5,189.5C 272.37,191.407 273.37,193.24 274.5,195C 273.305,196.533 273.305,198.033 274.5,199.5C 274.192,200.308 273.692,200.975 273,201.5C 272,201.167 271,200.833 270,200.5C 268.527,202.007 266.693,202.674 264.5,202.5C 262.667,202.415 261.334,201.748 260.5,200.5C 265.759,200.587 267.426,198.254 265.5,193.5C 260.898,189.111 255.398,187.445 249,188.5C 245.424,188.515 242.258,189.182 239.5,190.5C 238.167,190.5 236.833,190.5 235.5,190.5C 232.022,190.816 228.688,190.316 225.5,189C 227.731,187.723 229.398,185.889 230.5,183.5C 231.912,182.194 233.579,181.36 235.5,181C 239.195,180.682 242.862,180.182 246.5,179.5C 252.092,180.965 257.758,181.965 263.5,182.5 Z"/></g>
<g><path style="opacity:1" fill="#8bbd68" d="M 263.5,182.5 C 257.758,181.965 252.092,180.965 246.5,179.5C 242.862,180.182 239.195,180.682 235.5,181C 233.579,181.36 231.912,182.194 230.5,183.5C 229.398,185.889 227.731,187.723 225.5,189C 228.688,190.316 232.022,190.816 235.5,190.5C 230.175,192.278 224.842,194.278 219.5,196.5C 222.136,186.033 228.802,179.866 239.5,178C 248.225,176.347 256.225,177.847 263.5,182.5 Z"/></g>
<g><path style="opacity:0.973" fill="#1f291d" d="M 298.5,223.5 C 300.39,223.297 301.89,223.963 303,225.5C 310.097,235.652 313.931,246.652 314.5,258.5C 324.937,256.42 330.77,260.753 332,271.5C 333.554,288.557 327.387,302.057 313.5,312C 295.912,322.151 276.912,325.985 256.5,323.5C 258.277,318.999 259.777,314.333 261,309.5C 262.117,289.116 269.617,271.616 283.5,257C 287.43,254.412 291.764,252.912 296.5,252.5C 299.966,252.6 303.132,253.6 306,255.5C 305.765,249.004 303.765,243.004 300,237.5C 297.486,234.322 294.986,231.156 292.5,228C 293.065,225.702 294.232,224.869 296,225.5C 296.995,224.934 297.828,224.267 298.5,223.5 Z"/></g>
<g><path style="opacity:1" fill="#276728" d="M 311.5,252.5 C 315.64,267.662 313.306,281.662 304.5,294.5C 304.624,295.107 304.957,295.44 305.5,295.5C 305.167,296.5 304.5,297.167 303.5,297.5C 302.636,297.298 301.636,296.964 300.5,296.5C 304.264,293.308 306.764,289.308 308,284.5C 309.907,277.411 310.407,270.411 309.5,263.5C 309.41,249.827 304.744,237.993 295.5,228C 298.613,225.866 301.279,226.366 303.5,229.5C 307.775,236.659 310.441,244.326 311.5,252.5 Z"/></g>
<g><path style="opacity:1" fill="#87c75b" d="M 296.5,293.5 C 294.297,291.874 292.63,289.708 291.5,287C 286.493,286.027 284.326,283.194 285,278.5C 283.644,277.62 282.144,277.286 280.5,277.5C 281.207,280.786 281.54,284.119 281.5,287.5C 280.167,287.5 278.833,287.5 277.5,287.5C 278.077,283.92 277.077,280.92 274.5,278.5C 275.127,277.583 275.461,276.583 275.5,275.5C 276.15,273.565 276.483,271.565 276.5,269.5C 280.601,267.235 283.934,264.068 286.5,260C 288.421,259.64 290.088,258.806 291.5,257.5C 294.106,256.348 296.773,256.182 299.5,257C 301.026,258.887 303.026,259.887 305.5,260C 306.312,266.441 306.146,272.941 305,279.5C 303.249,282.252 302.416,285.252 302.5,288.5C 301.448,288.351 300.448,288.517 299.5,289C 298.947,290.878 297.947,292.378 296.5,293.5 Z"/></g>
<g><path style="opacity:1" fill="#032f03" d="M 311.5,252.5 C 312.816,255.408 313.816,258.408 314.5,261.5C 314.895,269.306 314.062,276.972 312,284.5C 310.4,288.577 308.234,292.244 305.5,295.5C 304.957,295.44 304.624,295.107 304.5,294.5C 313.306,281.662 315.64,267.662 311.5,252.5 Z"/></g>
<g><path style="opacity:1" fill="#87c65c" d="M 275.5,275.5 C 275.461,276.583 275.127,277.583 274.5,278.5C 277.077,280.92 278.077,283.92 277.5,287.5C 278.833,287.5 280.167,287.5 281.5,287.5C 281.54,284.119 281.207,280.786 280.5,277.5C 282.144,277.286 283.644,277.62 285,278.5C 284.326,283.194 286.493,286.027 291.5,287C 292.63,289.708 294.297,291.874 296.5,293.5C 295.437,296.09 293.771,298.257 291.5,300C 286.72,302.78 281.72,305.114 276.5,307C 275.594,308.699 275.261,310.533 275.5,312.5C 277.833,312.5 280.167,312.5 282.5,312.5C 284.547,312.489 286.547,312.156 288.5,311.5C 291.74,311.891 292.24,313.224 290,315.5C 289.667,315.167 289.333,314.833 289,314.5C 285.634,315.698 282.468,317.031 279.5,318.5C 276.167,318.5 272.833,318.5 269.5,318.5C 269.5,316.833 269.5,315.167 269.5,313.5C 268.5,313.5 267.5,313.5 266.5,313.5C 266.5,307.5 266.5,301.5 266.5,295.5C 268.554,290.36 270.387,285.027 272,279.5C 272.66,277.676 273.827,276.343 275.5,275.5 Z"/></g>
<g><path style="opacity:1" fill="#8ab46b" d="M 276.5,269.5 C 276.483,271.565 276.15,273.565 275.5,275.5C 273.827,276.343 272.66,277.676 272,279.5C 270.387,285.027 268.554,290.36 266.5,295.5C 267.427,285.692 270.761,277.025 276.5,269.5 Z"/></g>
<g><path style="opacity:1" fill="#88c65d" d="M 328.5,287.5 C 327.624,287.369 326.957,287.702 326.5,288.5C 322.433,297.251 316.433,304.584 308.5,310.5C 299.26,314.697 289.594,317.364 279.5,318.5C 282.468,317.031 285.634,315.698 289,314.5C 289.333,314.833 289.667,315.167 290,315.5C 292.24,313.224 291.74,311.891 288.5,311.5C 286.547,312.156 284.547,312.489 282.5,312.5C 285.959,311.16 288.626,309.493 290.5,307.5C 290.842,306.662 291.508,306.328 292.5,306.5C 305.08,302.374 312.58,293.708 315,280.5C 315.699,274.511 316.199,268.511 316.5,262.5C 322.764,262.334 326.597,265.334 328,271.5C 328.499,276.823 328.666,282.156 328.5,287.5 Z"/></g>
<g><path style="opacity:1" fill="#8abd69" d="M 308.5,263.5 C 310.236,287.417 299.569,302.417 276.5,308.5C 276.5,309.5 276.5,310.5 276.5,311.5C 281.32,310.76 285.986,309.427 290.5,307.5C 288.626,309.493 285.959,311.16 282.5,312.5C 280.167,312.5 277.833,312.5 275.5,312.5C 275.261,310.533 275.594,308.699 276.5,307C 281.72,305.114 286.72,302.78 291.5,300C 293.771,298.257 295.437,296.09 296.5,293.5C 297.947,292.378 298.947,290.878 299.5,289C 300.448,288.517 301.448,288.351 302.5,288.5C 302.416,285.252 303.249,282.252 305,279.5C 306.146,272.941 306.312,266.441 305.5,260C 303.026,259.887 301.026,258.887 299.5,257C 296.773,256.182 294.106,256.348 291.5,257.5C 290.088,258.806 288.421,259.64 286.5,260C 283.934,264.068 280.601,267.235 276.5,269.5C 279.555,263.447 284.222,258.947 290.5,256C 296.722,254.685 302.389,255.851 307.5,259.5C 308.429,260.689 308.762,262.022 308.5,263.5 Z"/></g>
<g><path style="opacity:1" fill="#88b96a" d="M 328.5,287.5 C 328.666,282.156 328.499,276.823 328,271.5C 326.597,265.334 322.764,262.334 316.5,262.5C 316.199,268.511 315.699,274.511 315,280.5C 312.58,293.708 305.08,302.374 292.5,306.5C 296.718,304.218 300.384,301.218 303.5,297.5C 304.5,297.167 305.167,296.5 305.5,295.5C 308.234,292.244 310.4,288.577 312,284.5C 314.062,276.972 314.895,269.306 314.5,261.5C 321.38,259.539 326.213,261.872 329,268.5C 329.82,275.014 329.653,281.347 328.5,287.5 Z"/></g>
<g><path style="opacity:0.941" fill="#1d271a" d="M 183.5,236.5 C 186.595,236.626 188.428,238.293 189,241.5C 198.667,248.5 207,256.833 214,266.5C 218.612,277.199 218.612,287.866 214,298.5C 211.795,301.04 209.295,303.207 206.5,305C 215.416,310.624 225.083,314.291 235.5,316C 236.788,318.466 236.788,320.966 235.5,323.5C 225.883,324.818 216.883,322.985 208.5,318C 205.922,315.793 203.089,313.96 200,312.5C 186.701,319.164 176.701,315.831 170,302.5C 164.028,287.611 164.695,272.944 172,258.5C 176.134,251.228 179.968,243.895 183.5,236.5 Z"/></g>
<g><path style="opacity:1" fill="#89b36c" d="M 175.5,258.5 C 174.411,265.357 172.578,272.024 170,278.5C 169.333,283.167 169.333,287.833 170,292.5C 170.74,294.319 171.907,295.652 173.5,296.5C 175.608,309.227 182.942,313.893 195.5,310.5C 194.833,308.167 194.167,305.833 193.5,303.5C 195.547,305.55 197.214,307.883 198.5,310.5C 187.881,316.254 179.381,313.921 173,303.5C 167.1,289.549 167.1,275.549 173,261.5C 173.852,260.429 174.685,259.429 175.5,258.5 Z"/></g>
<g><path style="opacity:1" fill="#8bb66d" d="M 207.5,262.5 C 210.144,265.773 212.311,269.44 214,273.5C 214.667,279.5 214.667,285.5 214,291.5C 212.404,296.592 209.237,300.258 204.5,302.5C 202.067,302.727 200.401,301.727 199.5,299.5C 201.653,300.573 203.653,300.573 205.5,299.5C 206.496,299.586 207.329,299.252 208,298.5C 209.039,295.987 210.372,293.653 212,291.5C 212.865,283.511 212.032,275.844 209.5,268.5C 208.833,266.5 208.167,264.5 207.5,262.5 Z"/></g>
<g><path style="opacity:1" fill="#10390c" d="M 187.5,271.5 C 188.887,276.749 190.387,282.082 192,287.5C 194.761,291.36 197.261,295.36 199.5,299.5C 200.401,301.727 202.067,302.727 204.5,302.5C 203.833,303.167 203.167,303.833 202.5,304.5C 195.679,298.216 190.846,290.549 188,281.5C 187.915,286.822 189.248,291.822 192,296.5C 194.346,301.204 197.18,305.537 200.5,309.5C 199.833,309.833 199.167,310.167 198.5,310.5C 197.214,307.883 195.547,305.55 193.5,303.5C 193.5,303.167 193.5,302.833 193.5,302.5C 189.114,294.676 186.114,286.343 184.5,277.5C 185.323,274.023 185.823,270.356 186,266.5C 186.198,268.382 186.698,270.048 187.5,271.5 Z"/></g>
<g><path style="opacity:1" fill="#7dad60" d="M 184.5,260.5 C 184.5,266.167 184.5,271.833 184.5,277.5C 186.114,286.343 189.114,294.676 193.5,302.5C 192.883,302.611 192.383,302.944 192,303.5C 187.929,296.099 184.763,288.433 182.5,280.5C 182.334,274.491 182.501,268.491 183,262.5C 183.278,261.584 183.778,260.918 184.5,260.5 Z"/></g>
<g><path style="opacity:1" fill="#88c75a" d="M 182.5,280.5 C 184.763,288.433 187.929,296.099 192,303.5C 192.383,302.944 192.883,302.611 193.5,302.5C 193.5,302.833 193.5,303.167 193.5,303.5C 194.167,305.833 194.833,308.167 195.5,310.5C 182.942,313.893 175.608,309.227 173.5,296.5C 174.052,294.669 174.052,293.003 173.5,291.5C 174.247,291.264 175.08,290.93 176,290.5C 177,284.167 178,277.833 179,271.5C 180.327,274.511 181.494,277.511 182.5,280.5 Z"/></g>
<g><path style="opacity:1" fill="#87c75b" d="M 209.5,268.5 C 212.032,275.844 212.865,283.511 212,291.5C 210.372,293.653 209.039,295.987 208,298.5C 207.329,299.252 206.496,299.586 205.5,299.5C 207.264,294.387 205.264,291.721 199.5,291.5C 199.649,292.552 199.483,293.552 199,294.5C 198.232,291.489 196.732,288.989 194.5,287C 197.147,286.685 197.813,285.518 196.5,283.5C 195.311,282.571 193.978,282.238 192.5,282.5C 192.663,280.143 192.497,277.81 192,275.5C 191.667,275.833 191.333,276.167 191,276.5C 190.333,274.833 190.333,273.167 191,271.5C 192.297,272.784 193.464,272.617 194.5,271C 191.971,268.358 190.971,265.192 191.5,261.5C 193.451,261.227 194.951,261.893 196,263.5C 196.75,262.874 197.584,262.374 198.5,262C 197.446,260.612 197.28,259.112 198,257.5C 200.397,259.782 203.231,261.116 206.5,261.5C 206.739,263.467 206.406,265.301 205.5,267C 206.901,267.41 208.234,267.91 209.5,268.5 Z"/></g>
<g><path style="opacity:1" fill="#88c55e" d="M 187.5,243.5 C 187.628,245.09 188.295,246.423 189.5,247.5C 194.33,250.834 198.663,254.667 202.5,259C 203.745,259.791 205.078,260.291 206.5,260.5C 207.338,260.842 207.672,261.508 207.5,262.5C 208.167,264.5 208.833,266.5 209.5,268.5C 208.234,267.91 206.901,267.41 205.5,267C 206.406,265.301 206.739,263.467 206.5,261.5C 203.231,261.116 200.397,259.782 198,257.5C 197.28,259.112 197.446,260.612 198.5,262C 197.584,262.374 196.75,262.874 196,263.5C 194.951,261.893 193.451,261.227 191.5,261.5C 190.971,265.192 191.971,268.358 194.5,271C 193.464,272.617 192.297,272.784 191,271.5C 190.333,273.167 190.333,274.833 191,276.5C 191.333,276.167 191.667,275.833 192,275.5C 192.497,277.81 192.663,280.143 192.5,282.5C 193.978,282.238 195.311,282.571 196.5,283.5C 197.813,285.518 197.147,286.685 194.5,287C 196.732,288.989 198.232,291.489 199,294.5C 199.483,293.552 199.649,292.552 199.5,291.5C 205.264,291.721 207.264,294.387 205.5,299.5C 203.653,300.573 201.653,300.573 199.5,299.5C 197.261,295.36 194.761,291.36 192,287.5C 190.387,282.082 188.887,276.749 187.5,271.5C 187.5,267.833 187.5,264.167 187.5,260.5C 186.5,260.5 185.5,260.5 184.5,260.5C 183.778,260.918 183.278,261.584 183,262.5C 182.501,268.491 182.334,274.491 182.5,280.5C 181.494,277.511 180.327,274.511 179,271.5C 178,277.833 177,284.167 176,290.5C 175.08,290.93 174.247,291.264 173.5,291.5C 174.052,293.003 174.052,294.669 173.5,296.5C 171.907,295.652 170.74,294.319 170,292.5C 169.333,287.833 169.333,283.167 170,278.5C 172.578,272.024 174.411,265.357 175.5,258.5C 175.5,258.167 175.5,257.833 175.5,257.5C 178.531,255.806 180.364,253.14 181,249.5C 182.011,248.663 183.178,248.33 184.5,248.5C 184.5,246.833 184.5,245.167 184.5,243.5C 185.5,243.5 186.5,243.5 187.5,243.5 Z"/></g>
<g><path style="opacity:1" fill="#0a2208" d="M 184.5,260.5 C 185.5,260.5 186.5,260.5 187.5,260.5C 187.5,264.167 187.5,267.833 187.5,271.5C 186.698,270.048 186.198,268.382 186,266.5C 185.823,270.356 185.323,274.023 184.5,277.5C 184.5,271.833 184.5,266.167 184.5,260.5 Z"/></g>
<g><path style="opacity:1" fill="#8ab36c" d="M 187.5,243.5 C 194.481,248.483 200.814,254.149 206.5,260.5C 205.078,260.291 203.745,259.791 202.5,259C 198.663,254.667 194.33,250.834 189.5,247.5C 188.295,246.423 187.628,245.09 187.5,243.5 Z"/></g>
<g><path style="opacity:1" fill="#83ad64" d="M 187.5,243.5 C 186.5,243.5 185.5,243.5 184.5,243.5C 184.5,245.167 184.5,246.833 184.5,248.5C 183.178,248.33 182.011,248.663 181,249.5C 180.364,253.14 178.531,255.806 175.5,257.5C 178.107,251.725 180.94,246.058 184,240.5C 184.333,240.167 184.667,239.833 185,239.5C 186.095,240.693 186.928,242.027 187.5,243.5 Z"/></g>
<g><path style="opacity:1" fill="#133d0d" d="M 308.5,263.5 C 308.833,263.5 309.167,263.5 309.5,263.5C 310.407,270.411 309.907,277.411 308,284.5C 306.764,289.308 304.264,293.308 300.5,296.5C 301.636,296.964 302.636,297.298 303.5,297.5C 300.384,301.218 296.718,304.218 292.5,306.5C 291.508,306.328 290.842,306.662 290.5,307.5C 285.986,309.427 281.32,310.76 276.5,311.5C 276.5,310.5 276.5,309.5 276.5,308.5C 299.569,302.417 310.236,287.417 308.5,263.5 Z"/></g>
<g><path style="opacity:1" fill="#266928" d="M 202.5,304.5 C 211.264,312.377 221.598,316.71 233.5,317.5C 233.5,319.167 233.5,320.833 233.5,322.5C 220.776,322.264 209.776,317.931 200.5,309.5C 197.18,305.537 194.346,301.204 192,296.5C 189.248,291.822 187.915,286.822 188,281.5C 190.846,290.549 195.679,298.216 202.5,304.5 Z"/></g>
<g><path style="opacity:1" fill="#88b965" d="M 328.5,287.5 C 323.037,301.795 313.037,311.628 298.5,317C 285.787,321.305 272.787,322.472 259.5,320.5C 260.764,317.875 261.931,315.208 263,312.5C 263.699,306.591 264.865,300.925 266.5,295.5C 266.5,301.5 266.5,307.5 266.5,313.5C 267.5,313.5 268.5,313.5 269.5,313.5C 269.5,315.167 269.5,316.833 269.5,318.5C 272.833,318.5 276.167,318.5 279.5,318.5C 289.594,317.364 299.26,314.697 308.5,310.5C 316.433,304.584 322.433,297.251 326.5,288.5C 326.957,287.702 327.624,287.369 328.5,287.5 Z"/></g>
</svg>
